<svg width="24" height="24" viewBox="0 0 24 24" fill="none" xmlns="http://www.w3.org/2000/svg">
<path d="M11.9424 2.25H12.0576C14.2614 2.24999 15.9427 2.25072 17.2451 2.42578C18.5664 2.60343 19.5354 2.9651 20.2852 3.71484C21.0349 4.46459 21.3966 5.43353 21.5742 6.75488C21.7493 8.05729 21.75 9.73867 21.75 11.9424V12.0576C21.75 14.2614 21.7493 15.9427 21.5742 17.2451C21.3966 18.5664 21.0349 19.5354 20.2852 20.2852C19.5354 21.0349 18.5664 21.3966 17.2451 21.5742C15.9427 21.7493 14.2614 21.75 12.0576 21.75H11.9424C9.73863 21.75 8.05729 21.7493 6.75488 21.5742C5.43353 21.3966 4.46459 21.0349 3.71484 20.2852C2.9651 19.5354 2.60343 18.5664 2.42578 17.2451C2.25072 15.9427 2.24999 14.2614 2.25 12.0576V11.9424C2.24999 9.73863 2.25072 8.05729 2.42578 6.75488C2.60343 5.43354 2.9651 4.4646 3.71484 3.71484C4.4646 2.9651 5.43354 2.60343 6.75488 2.42578C8.05729 2.25072 9.73864 2.24999 11.9424 2.25ZM17.0137 7.89453C16.4031 7.33479 15.4543 7.37585 14.8945 7.98633L10.4521 12.8311L9.06055 11.4395C8.47476 10.8537 7.52524 10.8537 6.93945 11.4395C6.35366 12.0252 6.35366 12.9748 6.93945 13.5605L9.43945 16.0605C9.7287 16.3498 10.1233 16.5088 10.5322 16.5C10.9411 16.491 11.3289 16.3152 11.6055 16.0137L17.1055 10.0137C17.6651 9.40306 17.6241 8.45434 17.0137 7.89453Z" fill="black" stroke="black"/>
</svg>
